<svg width="404" height="66" viewBox="0 0 404 66" fill="none" xmlns="http://www.w3.org/2000/svg">
<path d="M29.3612 51.3867H29.9812L46.721 0.885215H59.3866L36.8011 64.9748H22.5855L0 0.885215H12.6656L29.3612 51.3867Z" fill="black"/>
<path d="M293.468 64.9748L316.053 0.885215H330.269L352.854 64.9748H340.543L323.404 13.9864H322.873L305.735 64.9748H293.468ZM340.011 39.8347V49.0852H306.222V39.8347H340.011Z" fill="#6600FF"/>
<path d="M376.223 16.9076H387.117V24.9188H387.649C388.505 22.1451 389.996 20.0059 392.121 18.501C394.247 16.9666 396.698 16.1994 399.473 16.1994C400.89 16.1994 402.263 16.3027 403.591 16.5093V26.9105C403.119 26.704 402.351 26.5417 401.288 26.4237C400.226 26.3056 399.237 26.2466 398.321 26.2466C396.284 26.2466 394.439 26.6892 392.786 27.5744C391.132 28.4597 389.833 29.699 388.889 31.2924C387.944 32.8562 387.471 34.6562 387.471 36.6922V64.9748H376.223V16.9076Z" fill="black"/>
<path d="M221.591 0.885215H272.741V10.5783H252.945V64.9748H241.475V10.5783H221.591V0.885215Z" fill="black"/>
<path d="M186.721 18.4567C186.544 16.6568 185.939 15.0929 184.905 13.7651C183.901 12.4373 182.514 11.4488 180.742 10.7996C179 10.121 176.963 9.78163 174.631 9.78163C172.269 9.78163 170.202 10.1357 168.431 10.8439C166.689 11.5521 165.331 12.5405 164.357 13.8094C163.412 15.0782 162.94 16.5388 162.94 18.1912C162.94 20.6108 163.943 22.4845 165.951 23.8123C167.988 25.1401 170.645 26.2171 173.922 27.0433L179.901 28.5482C185.599 29.876 190.16 31.9858 193.585 34.8775C197.01 37.7692 198.737 41.7969 198.767 46.9607C198.767 50.7081 197.792 54.0129 195.844 56.8751C193.925 59.7373 191.135 61.9651 187.474 63.5584C183.842 65.1518 179.488 65.9485 174.41 65.9485C169.45 65.9485 165.124 65.1813 161.434 63.647C157.773 62.0831 154.924 59.811 152.887 56.8308C150.85 53.8506 149.743 50.2655 149.566 46.0754H160.903C161.08 48.259 161.773 50.1032 162.984 51.608C164.194 53.0834 165.774 54.2047 167.723 54.9719C169.671 55.7095 171.871 56.0784 174.321 56.0784C176.86 56.0784 179.104 55.6948 181.052 54.9276C183.001 54.1604 184.507 53.0834 185.569 51.6966C186.662 50.2802 187.208 48.6721 187.208 46.8721C187.208 45.2788 186.75 43.9362 185.835 42.8444C184.92 41.7231 183.621 40.7937 181.938 40.056C180.285 39.3183 178.189 38.6249 175.65 37.9757L168.342 36.1168C162.851 34.6709 158.629 32.5464 155.677 29.7432C152.754 26.94 151.293 23.3107 151.293 18.8551C151.293 15.1372 152.311 11.8619 154.348 9.02919C156.385 6.167 159.19 3.95396 162.763 2.39008C166.335 0.796694 170.35 0 174.808 0C179.266 0 183.222 0.78194 186.677 2.34582C190.16 3.9097 192.877 6.09323 194.825 8.89641C196.774 11.6701 197.792 14.8569 197.881 18.4567H186.721Z" fill="black"/>
<path d="M83.2425 0.885215H124.915V10.5783H94.7567V28.1056H122.745V37.7102H94.7567V55.2817H125.092V64.9748H83.2425V0.885215Z" fill="black"/>
</svg>
